<svg xmlns="http://www.w3.org/2000/svg" viewBox="0 0 260 300" fill="none">
  <defs>
    <linearGradient id="ribbon" x1="24" y1="43" x2="227" y2="255" gradientUnits="userSpaceOnUse">
      <stop stop-color="#C9FFE8"/>
      <stop offset=".42" stop-color="#39D29A"/>
      <stop offset="1" stop-color="#04966F"/>
    </linearGradient>
    <linearGradient id="core" x1="88" y1="104" x2="173" y2="207" gradientUnits="userSpaceOnUse">
      <stop stop-color="#9BF5CE"/>
      <stop offset=".55" stop-color="#16B981"/>
      <stop offset="1" stop-color="#05876A"/>
    </linearGradient>
  </defs>
  <path d="M39 120C5 78 34 29 83 48c29 12 25 48-2 50-17 2-27-15-16-27" stroke="url(#ribbon)" stroke-width="19" stroke-linecap="round"/>
  <path d="M34 187c-30 17-21 58 14 63 39 6 66-32 42-58-16-17-39-4-29 15" stroke="url(#ribbon)" stroke-width="18" stroke-linecap="round"/>
  <path d="M201 111c34 17 31 60-6 68-28 6-48-20-34-43" stroke="url(#ribbon)" stroke-width="18" stroke-linecap="round"/>
  <path d="M173 227c30 21 65 2 57-31-6-24-35-30-43-8" stroke="url(#ribbon)" stroke-width="17" stroke-linecap="round"/>
  <path d="M74 99c-22 30-20 81 6 110 28 31 78 33 108 4 30-29 28-80 0-111-27-30-86-38-114-3Z" fill="url(#core)"/>
  <path d="M69 142c7-32 39-56 73-54 31 1 58 22 65 51-16-14-34-19-55-17-30 3-56 14-83 20Z" fill="#7EE9BE" opacity=".9"/>
  <ellipse cx="129" cy="155" rx="43" ry="39" fill="#E9FFF5"/>
  <ellipse cx="113" cy="154" rx="8" ry="10" fill="#103C39"/>
  <ellipse cx="146" cy="154" rx="8" ry="10" fill="#103C39"/>
  <circle cx="115" cy="151" r="2.5" fill="white"/>
  <circle cx="148" cy="151" r="2.5" fill="white"/>
  <path d="M115 174c10 9 23 9 31 0" stroke="#087561" stroke-width="4.5" stroke-linecap="round"/>
  <path d="M83 175c-18 21-12 48 12 58M172 175c16 20 11 46-9 57" stroke="#18B982" stroke-width="17" stroke-linecap="round"/>
  <path d="M103 221c17 13 41 15 61 3" stroke="#9FF4CE" stroke-width="9" stroke-linecap="round"/>
  <g transform="rotate(-8 154 212)">
    <rect x="126" y="188" width="77" height="51" rx="8" fill="#FFFDF7" stroke="#D8AF55" stroke-width="3.5"/>
    <path d="m129 193 35 27 35-27" stroke="#D8AF55" stroke-width="3.5" stroke-linejoin="round"/>
    <circle cx="164" cy="217" r="8.5" fill="#D8AF55"/>
    <path d="M161 217h6M164 214v6" stroke="#FFFDF7" stroke-width="2.4" stroke-linecap="round"/>
  </g>
  <path d="M72 269c20 8 39 10 57 5M158 274c15-2 28-8 38-18" stroke="#8AEEC2" stroke-width="5" stroke-linecap="round"/>
</svg>
